# Blender v2.80 (sub 45) OBJ File: ''
# www.blender.org
mtllib jj1.mtl
o group137381050
v 0.080166 0.073335 -0.031613
v 0.080166 0.413335 -0.031613
v 0.080166 0.413335 0.048387
v 0.080166 0.073335 0.048387
v -0.079834 0.413335 0.048387
v -0.079834 0.413335 -0.031613
v -0.079834 0.073334 -0.031613
v -0.079834 0.073334 0.048387
v 0.000166 0.073334 -0.031613
v 0.000166 0.413335 -0.031613
vt 0.080443 0.145310
vt 0.100206 0.172976
vt 0.106715 0.168327
vt 0.086953 0.140660
vt -0.106715 0.168327
vt -0.100205 0.172976
vt -0.080443 0.145309
vt -0.086953 0.140660
vt 0.117170 0.210638
vt 0.124325 0.196327
vt 0.093915 0.181121
vt 0.086759 0.195432
vt -0.090337 0.188277
vt -0.120748 0.203482
vt -0.117170 0.210638
vt -0.086759 0.195432
vt 0.030001 0.116709
vt 0.022467 0.119400
vt 0.025158 0.126934
vt 0.027849 0.134468
vt 0.035383 0.131777
vt -0.027849 0.134467
vt -0.025158 0.126933
vt -0.022467 0.119399
vt -0.030001 0.116709
vt -0.035383 0.131777
vt -0.093915 0.181121
vt -0.124325 0.196327
vn 1.0000 0.0000 0.0000
vn -1.0000 -0.0000 0.0000
vn 0.0000 -0.0000 1.0000
vn 0.0000 -0.0000 -1.0000
vn 0.0000 -1.0000 0.0000
vn 0.0000 1.0000 0.0000
usemtl mat10
s 1
f 1/1/1 2/2/1 3/3/1 4/4/1
f 5/5/2 6/6/2 7/7/2 8/8/2
f 3/9/3 5/10/3 8/11/3 4/12/3
f 9/13/4 10/14/4 2/15/4 1/16/4
f 8/17/5 7/18/5 9/19/5 1/20/5 4/21/5
f 2/22/6 10/23/6 6/24/6 5/25/6 3/26/6
f 9/13/4 7/27/4 6/28/4 10/14/4
o group1079108867
v 0.080166 0.083335 -0.091613
v 0.080166 0.083335 -0.011613
v 0.080166 0.003335 -0.011613
v 0.000166 0.003335 -0.011613
v 0.000166 0.083335 -0.011613
v 0.000166 0.083335 -0.091613
v 0.000166 0.003335 -0.071613
v 0.080166 0.003335 -0.071613
vt 0.076142 0.149611
vt 0.082652 0.144961
vt 0.078002 0.138451
vt -0.078002 0.138451
vt -0.082652 0.144961
vt -0.076142 0.149611
vt 0.029732 0.133795
vt 0.027041 0.126261
vt 0.021391 0.128279
vt 0.024082 0.135813
vt -0.019508 0.128951
vt -0.027041 0.126261
vt -0.029732 0.133795
vt -0.022198 0.136485
vt -0.074386 0.189967
vt -0.081545 0.194060
vt -0.077575 0.201005
vt -0.070416 0.196912
vt 0.087654 0.195880
vt 0.091232 0.188724
vt 0.084076 0.185146
vt 0.080498 0.192302
vt 0.073120 0.141938
vt -0.073120 0.141938
vn 1.0000 -0.0000 0.0000
vn -1.0000 0.0000 0.0000
vn 0.0000 -1.0000 0.0000
vn 0.0000 1.0000 0.0000
vn 0.0000 -0.2425 -0.9701
vn -0.0000 -0.0000 1.0000
usemtl mat10
s 1
f 11/29/7 12/30/7 13/31/7
f 14/32/8 15/33/8 16/34/8
f 13/35/9 14/36/9 17/37/9 18/38/9
f 16/39/10 15/40/10 12/41/10 11/42/10
f 17/43/11 16/44/11 11/45/11 18/46/11
f 12/47/12 15/48/12 14/49/12 13/50/12
f 13/31/7 18/51/7 11/29/7
f 16/34/8 17/52/8 14/32/8
o group1381788076
v 0.000166 0.113335 -0.071613
v 0.000166 0.083335 -0.011613
v 0.000166 0.003335 -0.011613
v 0.000166 0.003335 -0.121613
v -0.079834 0.003335 -0.011613
v -0.079834 0.083335 -0.011613
v -0.079834 0.113335 -0.071613
v -0.079834 0.003335 -0.121613
vt 0.079513 0.150889
vt 0.082652 0.144961
vt 0.078002 0.138451
vt 0.069051 0.144845
vt -0.078002 0.138451
vt -0.082652 0.144961
vt -0.079513 0.150889
vt -0.069051 0.144845
vt 0.027041 0.126261
vt 0.024351 0.118727
vt 0.013992 0.122427
vt 0.016682 0.129960
vt 0.027230 0.151339
vt 0.021334 0.148138
vt 0.017517 0.155168
vt 0.023412 0.158369
vt -0.091154 0.153562
vt -0.102704 0.157112
vt -0.100353 0.164759
vt -0.088804 0.161209
vt 0.091232 0.188724
vt 0.094809 0.181569
vt 0.087654 0.177991
vt 0.084076 0.185146
vn 1.0000 0.0000 0.0000
vn -1.0000 -0.0000 0.0000
vn 0.0000 -1.0000 0.0000
vn -0.0000 0.8944 0.4472
vn 0.0000 0.4138 -0.9104
vn -0.0000 -0.0000 1.0000
usemtl mat10
s 1
f 19/53/13 20/54/13 21/55/13 22/56/13
f 23/57/14 24/58/14 25/59/14 26/60/14
f 21/61/15 23/62/15 26/63/15 22/64/15
f 25/65/16 24/66/16 20/67/16 19/68/16
f 26/69/17 25/70/17 19/71/17 22/72/17
f 20/73/18 24/74/18 23/75/18 21/76/18
o group14267321
v -0.079834 0.083335 0.028387
v 0.000166 0.083335 0.028387
v 0.000166 0.003335 0.018387
v -0.079834 0.003335 0.018387
v 0.000166 0.003335 0.068387
v 0.000166 0.083335 0.108387
v -0.079834 0.083335 0.108387
v -0.079834 0.003335 0.068387
vt -0.099226 0.176515
vt -0.095932 0.183806
vt -0.088585 0.180486
vt -0.091879 0.173196
vt 0.096583 0.160952
vt 0.105179 0.163423
vt 0.107390 0.155735
vt 0.098793 0.153263
vt 0.029867 0.125252
vt 0.034575 0.123570
vt 0.031885 0.116036
vt 0.027176 0.117718
vt -0.035652 0.114691
vt -0.038342 0.122225
vt -0.030808 0.124915
vt -0.028118 0.117381
vt -0.084512 0.133801
vt -0.085907 0.142636
vt -0.080443 0.136707
vt 0.085907 0.142636
vt 0.084512 0.133801
vt 0.080443 0.136707
vt -0.092417 0.137986
vt 0.092417 0.137986
vn -0.0000 0.1240 -0.9923
vn 0.0000 -0.4472 0.8944
vn -0.0000 -1.0000 -0.0000
vn 0.0000 1.0000 0.0000
vn -1.0000 -0.0000 0.0000
vn 1.0000 -0.0000 0.0000
usemtl mat10
s 1
f 27/77/19 28/78/19 29/79/19 30/80/19
f 31/81/20 32/82/20 33/83/20 34/84/20
f 29/85/21 31/86/21 34/87/21 30/88/21
f 33/89/22 32/90/22 28/91/22 27/92/22
f 34/93/23 27/94/23 30/95/23
f 28/96/24 31/97/24 29/98/24
f 34/93/23 33/99/23 27/94/23
f 28/96/24 32/100/24 31/97/24
o group136961553
v 0.000166 0.083335 0.028387
v 0.080166 0.083335 0.028387
v 0.080166 0.003335 0.028387
v 0.000166 0.003335 0.028387
v 0.080166 0.003335 0.138387
v 0.080166 0.103335 0.088387
v 0.000166 0.103335 0.088387
v 0.000166 0.003335 0.138387
vt -0.091232 0.188724
vt -0.087654 0.195880
vt -0.080498 0.192302
vt -0.084076 0.185146
vt 0.051011 0.190049
vt 0.060569 0.195850
vt 0.064719 0.189011
vt 0.055162 0.183210
vt 0.033499 0.132449
vt 0.043858 0.128750
vt 0.041168 0.121216
vt 0.030808 0.124915
vt -0.068506 0.117694
vt -0.069928 0.125566
vt -0.063705 0.126691
vt -0.062282 0.118818
vt -0.090208 0.129732
vt -0.091952 0.140776
vt -0.085907 0.142636
vt -0.081257 0.136126
vt 0.085907 0.142636
vt 0.091952 0.140776
vt 0.090208 0.129732
vt 0.081257 0.136126
vn -0.0000 0.0000 -1.0000
vn 0.0000 0.4472 0.8944
vn -0.0000 -1.0000 -0.0000
vn -0.0000 0.9487 -0.3162
vn -1.0000 0.0000 0.0000
vn 1.0000 0.0000 0.0000
usemtl mat10
s 1
f 35/101/25 36/102/25 37/103/25 38/104/25
f 39/105/26 40/106/26 41/107/26 42/108/26
f 37/109/27 39/110/27 42/111/27 38/112/27
f 41/113/28 40/114/28 36/115/28 35/116/28
f 42/117/29 41/118/29 35/119/29 38/120/29
f 36/121/30 40/122/30 39/123/30 37/124/30
o group2040827478
v 0.080166 0.373335 -0.061613
v 0.080166 0.533335 -0.061613
v 0.080166 0.533335 0.078387
v 0.080166 0.373335 0.078387
v -0.079834 0.533335 0.078387
v -0.079834 0.533335 -0.061613
v -0.079834 0.373335 -0.061613
v -0.079834 0.373335 0.078387
vt 0.095439 0.171465
vt 0.104739 0.184485
vt 0.116131 0.176348
vt 0.106832 0.163328
vt -0.116131 0.176348
vt -0.104739 0.184485
vt -0.095439 0.171465
vt -0.106832 0.163328
vt 0.127903 0.216004
vt 0.135059 0.201693
vt 0.120748 0.194538
vt 0.113592 0.208849
vt 0.032826 0.115700
vt 0.019642 0.120408
vt 0.025023 0.135476
vt 0.038208 0.130768
vt -0.025023 0.135476
vt -0.019642 0.120408
vt -0.032826 0.115700
vt -0.038208 0.130768
vt -0.120748 0.194538
vt -0.135059 0.201693
vt -0.127903 0.216004
vt -0.113592 0.208849
vn 1.0000 -0.0000 0.0000
vn -1.0000 0.0000 -0.0000
vn 0.0000 -0.0000 1.0000
vn 0.0000 -1.0000 -0.0000
vn 0.0000 1.0000 0.0000
vn 0.0000 0.0000 -1.0000
usemtl mat10
s 1
f 43/125/31 44/126/31 45/127/31 46/128/31
f 47/129/32 48/130/32 49/131/32 50/132/32
f 45/133/33 47/134/33 50/135/33 46/136/33
f 50/137/34 49/138/34 43/139/34 46/140/34
f 44/141/35 48/142/35 47/143/35 45/144/35
usemtl mat23
f 49/145/36 48/146/36 44/147/36 43/148/36
o group98224868
v 0.010166 0.393335 -0.071613
v 0.010166 0.393335 -0.051613
v 0.010166 0.373335 -0.051613
v 0.010166 0.373335 -0.071613
v -0.009834 0.373335 -0.051613
v -0.009834 0.393335 -0.051613
v -0.009834 0.393335 -0.071613
v -0.009834 0.373335 -0.071613
vt 0.095788 0.173674
vt 0.097416 0.172512
vt 0.096253 0.170884
vt 0.094626 0.172046
vt -0.096253 0.170884
vt -0.097416 0.172512
vt -0.095788 0.173674
vt -0.094626 0.172046
vt 0.023611 0.128548
vt 0.022938 0.126664
vt 0.021055 0.127337
vt 0.021727 0.129220
vt -0.021055 0.127337
vt -0.022938 0.126664
vt -0.023611 0.128548
vt -0.021727 0.129220
vt -0.117617 0.200799
vt -0.119406 0.201693
vt -0.118512 0.203482
vt -0.116723 0.202588
vt 0.118512 0.203482
vt 0.119406 0.201693
vt 0.117617 0.200799
vt 0.116723 0.202588
vn 1.0000 0.0000 0.0000
vn -1.0000 0.0000 0.0000
vn 0.0000 -1.0000 0.0000
vn 0.0000 1.0000 0.0000
vn 0.0000 0.0000 -1.0000
vn 0.0000 0.0000 1.0000
usemtl mat10
s 1
f 51/149/37 52/150/37 53/151/37 54/152/37
f 55/153/38 56/154/38 57/155/38 58/156/38
f 53/157/39 55/158/39 58/159/39 54/160/39
f 57/161/40 56/162/40 52/163/40 51/164/40
f 58/165/41 57/166/41 51/167/41 54/168/41
f 52/169/42 56/170/42 55/171/42 53/172/42
o group272358100
v -0.018685 0.483524 -0.064209
v -0.018644 0.493524 -0.064182
v -0.018671 0.493497 -0.054182
v -0.018711 0.483497 -0.054209
v -0.028671 0.493537 -0.054209
v -0.028644 0.493564 -0.064209
v -0.028685 0.483564 -0.064235
v -0.028711 0.483537 -0.054236
vt 0.101604 0.181218
vt 0.102187 0.182030
vt 0.102999 0.181447
vt 0.102416 0.180635
vt -0.102999 0.181447
vt -0.102187 0.182030
vt -0.101604 0.181218
vt -0.102416 0.180635
vt 0.128813 0.205255
vt 0.129263 0.204362
vt 0.128370 0.203912
vt 0.127920 0.204805
vt -0.128371 0.203912
vt -0.129263 0.204362
vt -0.128813 0.205255
vt -0.127920 0.204805
vt 0.021485 0.124340
vt 0.020544 0.124680
vt 0.020885 0.125621
vt 0.021825 0.125280
vt -0.020885 0.125621
vt -0.020544 0.124681
vt -0.021484 0.124340
vt -0.021825 0.125280
vn 1.0000 -0.0040 0.0027
vn -1.0000 0.0040 -0.0027
vn -0.0027 -0.0027 1.0000
vn 0.0027 0.0027 -1.0000
vn -0.0040 -1.0000 -0.0027
vn 0.0040 1.0000 0.0027
usemtl mat8
s 1
f 59/173/43 60/174/43 61/175/43 62/176/43
f 63/177/44 64/178/44 65/179/44 66/180/44
f 61/181/45 63/182/45 66/183/45 62/184/45
f 65/185/46 64/186/46 60/187/46 59/188/46
f 66/189/47 65/190/47 59/191/47 62/192/47
f 60/193/48 64/194/48 63/195/48 61/196/48
o group1381166309
v 0.031336 0.482887 -0.063544
v 0.031145 0.492884 -0.063681
v 0.031038 0.493018 -0.053682
v 0.031230 0.483021 -0.053546
v 0.021040 0.492825 -0.053786
v 0.021147 0.492691 -0.063785
v 0.021339 0.482694 -0.063648
v 0.021232 0.482828 -0.053650
vt 0.104830 0.175878
vt 0.105426 0.176680
vt 0.106229 0.176083
vt 0.105632 0.175281
vt -0.106229 0.176084
vt -0.105426 0.176680
vt -0.104830 0.175878
vt -0.105632 0.175281
vt 0.125704 0.210416
vt 0.126139 0.209516
vt 0.125238 0.209081
vt 0.124804 0.209981
vt -0.125238 0.209081
vt -0.126139 0.209516
vt -0.125704 0.210416
vt -0.124804 0.209981
vt 0.026563 0.132658
vt 0.025622 0.132996
vt 0.025960 0.133937
vt 0.026901 0.133599
vt -0.025960 0.133937
vt -0.025622 0.132996
vt -0.026563 0.132658
vt -0.026901 0.133600
vn 0.9998 0.0193 0.0104
vn -0.9998 -0.0193 -0.0104
vn -0.0107 0.0134 0.9999
vn 0.0107 -0.0134 -0.9999
vn 0.0192 -0.9997 0.0137
vn -0.0192 0.9997 -0.0136
usemtl mat8
s 1
f 67/197/49 68/198/49 69/199/49 70/200/49
f 71/201/50 72/202/50 73/203/50 74/204/50
f 69/205/51 71/206/51 74/207/51 70/208/51
f 73/209/52 72/210/52 68/211/52 67/212/52
f 74/213/53 73/214/53 67/215/53 70/216/53
f 68/217/54 72/218/54 71/219/54 69/220/54
o group594200690
v 0.080166 0.503335 -0.071613
v 0.080166 0.533335 -0.071613
v 0.080166 0.533335 -0.051613
v 0.080166 0.503335 -0.051613
v -0.079834 0.533335 -0.051613
v -0.079834 0.533335 -0.071613
v -0.079834 0.503335 -0.071613
v -0.079834 0.503335 -0.051613
vt 0.102182 0.182625
vt 0.103925 0.185066
vt 0.105553 0.183904
vt 0.103809 0.181463
vt -0.105553 0.183904
vt -0.103925 0.185066
vt -0.102182 0.182625
vt -0.103809 0.181463
vt 0.127903 0.216004
vt 0.135059 0.201693
vt 0.132375 0.200352
vt 0.125220 0.214663
vt -0.132375 0.200352
vt -0.135059 0.201693
vt -0.127903 0.216004
vt -0.125220 0.214663
vt 0.020584 0.120072
vt 0.018700 0.120745
vt 0.024082 0.135813
vt 0.025965 0.135140
vt -0.024082 0.135813
vt -0.018700 0.120745
vt -0.020584 0.120072
vt -0.025965 0.135140
vn 1.0000 -0.0000 0.0000
vn -1.0000 0.0000 0.0000
vn -0.0000 -0.0000 1.0000
vn 0.0000 0.0000 -1.0000
vn 0.0000 -1.0000 0.0000
vn 0.0000 1.0000 0.0000
usemtl mat10
s 1
f 75/221/55 76/222/55 77/223/55 78/224/55
f 79/225/56 80/226/56 81/227/56 82/228/56
f 77/229/57 79/230/57 82/231/57 78/232/57
f 81/233/58 80/234/58 76/235/58 75/236/58
f 82/237/59 81/238/59 75/239/59 78/240/59
f 76/241/60 80/242/60 79/243/60 77/244/60
o group430116289
v 0.080166 0.503335 -0.071613
v 0.080166 0.503335 -0.051613
v 0.080166 0.373335 -0.051613
v 0.080166 0.373335 -0.071613
v 0.040166 0.373335 -0.051613
v 0.040166 0.503335 -0.051613
v 0.040166 0.503335 -0.071613
v 0.040166 0.373335 -0.071613
vt 0.102182 0.182625
vt 0.103809 0.181462
vt 0.096253 0.170884
vt 0.094626 0.172046
vt -0.096253 0.170884
vt -0.103809 0.181463
vt -0.102182 0.182625
vt -0.094626 0.172046
vt 0.025965 0.135140
vt 0.024620 0.131373
vt 0.022736 0.132046
vt 0.024082 0.135813
vt -0.022736 0.132046
vt -0.024620 0.131373
vt -0.025965 0.135140
vt -0.024082 0.135813
vt -0.115381 0.205271
vt -0.127009 0.211085
vt -0.125220 0.214663
vt -0.113592 0.208849
vt 0.125220 0.214663
vt 0.127009 0.211085
vt 0.115381 0.205271
vt 0.113592 0.208849
vn 1.0000 0.0000 0.0000
vn -1.0000 0.0000 0.0000
vn 0.0000 -1.0000 0.0000
vn 0.0000 1.0000 0.0000
vn 0.0000 0.0000 -1.0000
vn 0.0000 -0.0000 1.0000
usemtl mat10
s 1
f 83/245/61 84/246/61 85/247/61 86/248/61
f 87/249/62 88/250/62 89/251/62 90/252/62
f 85/253/63 87/254/63 90/255/63 86/256/63
f 89/257/64 88/258/64 84/259/64 83/260/64
f 90/261/65 89/262/65 83/263/65 86/264/65
f 84/265/66 88/266/66 87/267/66 85/268/66
o group731436979
v 0.040166 0.473335 -0.071613
v 0.040166 0.473335 -0.051613
v 0.040166 0.373335 -0.051613
v 0.040166 0.373335 -0.071613
v 0.020166 0.373335 -0.051613
v 0.020166 0.473335 -0.051613
v 0.020166 0.473335 -0.071613
v 0.020166 0.373335 -0.071613
vt 0.100438 0.180184
vt 0.102065 0.179021
vt 0.096253 0.170884
vt 0.094626 0.172046
vt -0.096253 0.170884
vt -0.102065 0.179021
vt -0.100438 0.180184
vt -0.094626 0.172046
vt 0.024620 0.131373
vt 0.023947 0.129489
vt 0.022064 0.130162
vt 0.022736 0.132046
vt -0.022064 0.130162
vt -0.023947 0.129489
vt -0.024620 0.131373
vt -0.022736 0.132046
vt -0.116275 0.203482
vt -0.125220 0.207954
vt -0.124325 0.209743
vt -0.115381 0.205271
vt 0.124325 0.209743
vt 0.125220 0.207954
vt 0.116275 0.203482
vt 0.115381 0.205271
vn 1.0000 0.0000 0.0000
vn -1.0000 0.0000 0.0000
vn 0.0000 -1.0000 0.0000
vn 0.0000 1.0000 0.0000
vn 0.0000 0.0000 -1.0000
vn 0.0000 -0.0000 1.0000
usemtl mat10
s 1
f 91/269/67 92/270/67 93/271/67 94/272/67
f 95/273/68 96/274/68 97/275/68 98/276/68
f 93/277/69 95/278/69 98/279/69 94/280/69
f 97/281/70 96/282/70 92/283/70 91/284/70
f 98/285/71 97/286/71 91/287/71 94/288/71
f 92/289/72 96/290/72 95/291/72 93/292/72
o group506490700
v 0.030166 0.443335 -0.071613
v 0.030166 0.473335 -0.071613
v 0.030166 0.473335 -0.051613
v 0.030166 0.443335 -0.051613
v 0.010166 0.473335 -0.051613
v 0.010166 0.473335 -0.071613
v 0.010166 0.443335 -0.071613
v 0.010166 0.443335 -0.051613
vt 0.098694 0.177743
vt 0.100438 0.180184
vt 0.102065 0.179021
vt 0.100322 0.176580
vt -0.102066 0.179021
vt -0.100438 0.180184
vt -0.098694 0.177743
vt -0.100322 0.176580
vt 0.124773 0.208849
vt 0.125667 0.207060
vt 0.122984 0.205718
vt 0.122089 0.207507
vt -0.122984 0.205718
vt -0.125667 0.207060
vt -0.124773 0.208849
vt -0.122089 0.207507
vt 0.023611 0.128548
vt 0.021727 0.129220
vt 0.022400 0.131104
vt 0.024283 0.130431
vt -0.022400 0.131104
vt -0.021727 0.129220
vt -0.023611 0.128548
vt -0.024284 0.130431
vn 1.0000 0.0000 0.0000
vn -1.0000 0.0000 0.0000
vn -0.0000 -0.0000 1.0000
vn 0.0000 -0.0000 -1.0000
vn 0.0000 -1.0000 0.0000
vn 0.0000 1.0000 0.0000
usemtl mat10
s 1
f 99/293/73 100/294/73 101/295/73 102/296/73
f 103/297/74 104/298/74 105/299/74 106/300/74
f 101/301/75 103/302/75 106/303/75 102/304/75
f 105/305/76 104/306/76 100/307/76 99/308/76
f 106/309/77 105/310/77 99/311/77 102/312/77
f 100/313/78 104/314/78 103/315/78 101/316/78
o group1646069577
v 0.010166 0.463335 -0.071613
v 0.010166 0.503335 -0.071613
v 0.010166 0.503335 -0.051613
v 0.010166 0.463335 -0.051613
v -0.009834 0.503335 -0.051613
v -0.009834 0.503335 -0.071613
v -0.009834 0.463335 -0.071613
v -0.009834 0.463335 -0.051613
vt 0.099857 0.179370
vt 0.102182 0.182625
vt 0.103809 0.181463
vt 0.101484 0.178208
vt -0.103809 0.181462
vt -0.102182 0.182625
vt -0.099857 0.179370
vt -0.101484 0.178208
vt 0.128350 0.208402
vt 0.129245 0.206613
vt 0.125667 0.204824
vt 0.124773 0.206613
vt -0.125667 0.204824
vt -0.129245 0.206613
vt -0.128350 0.208402
vt -0.124773 0.206613
vt 0.022938 0.126664
vt 0.021055 0.127337
vt 0.021727 0.129220
vt 0.023611 0.128548
vt -0.021727 0.129220
vt -0.021055 0.127337
vt -0.022938 0.126664
vt -0.023611 0.128548
vn 1.0000 0.0000 0.0000
vn -1.0000 0.0000 0.0000
vn -0.0000 -0.0000 1.0000
vn 0.0000 0.0000 -1.0000
vn 0.0000 -1.0000 0.0000
vn 0.0000 1.0000 0.0000
usemtl mat10
s 1
f 107/317/79 108/318/79 109/319/79 110/320/79
f 111/321/80 112/322/80 113/323/80 114/324/80
f 109/325/81 111/326/81 114/327/81 110/328/81
f 113/329/82 112/330/82 108/331/82 107/332/82
f 114/333/83 113/334/83 107/335/83 110/336/83
f 108/337/84 112/338/84 111/339/84 109/340/84
o group1253557959
v -0.009834 0.443335 -0.071613
v -0.009834 0.473335 -0.071613
v -0.009834 0.473335 -0.051613
v -0.009834 0.443335 -0.051613
v -0.039834 0.473335 -0.051613
v -0.039834 0.473335 -0.071613
v -0.039834 0.443335 -0.071613
v -0.039834 0.443335 -0.051613
vt 0.098694 0.177743
vt 0.100438 0.180184
vt 0.102065 0.179021
vt 0.100322 0.176580
vt -0.102065 0.179021
vt -0.100438 0.180184
vt -0.098694 0.177743
vt -0.100322 0.176580
vt 0.126561 0.205271
vt 0.127903 0.202588
vt 0.125220 0.201246
vt 0.123878 0.203929
vt -0.125220 0.201246
vt -0.127903 0.202588
vt -0.126561 0.205271
vt -0.123878 0.203929
vt 0.021929 0.123839
vt 0.020046 0.124512
vt 0.021055 0.127337
vt 0.022938 0.126664
vt -0.021055 0.127337
vt -0.020046 0.124512
vt -0.021929 0.123839
vt -0.022938 0.126664
vn 1.0000 0.0000 0.0000
vn -1.0000 0.0000 0.0000
vn -0.0000 0.0000 1.0000
vn 0.0000 -0.0000 -1.0000
vn 0.0000 -1.0000 0.0000
vn 0.0000 1.0000 0.0000
usemtl mat10
s 1
f 115/341/85 116/342/85 117/343/85 118/344/85
f 119/345/86 120/346/86 121/347/86 122/348/86
f 117/349/87 119/350/87 122/351/87 118/352/87
f 121/353/88 120/354/88 116/355/88 115/356/88
f 122/357/89 121/358/89 115/359/89 118/360/89
f 116/361/90 120/362/90 119/363/90 117/364/90
o group172045382
v -0.039834 0.373335 -0.071613
v -0.039834 0.503335 -0.071613
v -0.039834 0.503335 -0.051613
v -0.039834 0.373335 -0.051613
v -0.079834 0.503335 -0.051613
v -0.079834 0.503335 -0.071613
v -0.079834 0.373335 -0.071613
v -0.079834 0.373335 -0.051613
vt 0.094626 0.172046
vt 0.102182 0.182625
vt 0.103809 0.181463
vt 0.096253 0.170884
vt -0.103809 0.181463
vt -0.102182 0.182625
vt -0.094626 0.172046
vt -0.096253 0.170884
vt 0.130586 0.203929
vt 0.132375 0.200352
vt 0.120748 0.194538
vt 0.118959 0.198116
vt -0.120748 0.194538
vt -0.132375 0.200352
vt -0.130586 0.203929
vt -0.118959 0.198116
vt 0.020584 0.120072
vt 0.018700 0.120745
vt 0.020046 0.124512
vt 0.021929 0.123839
vt -0.020046 0.124512
vt -0.018700 0.120745
vt -0.020584 0.120072
vt -0.021929 0.123839
vn 1.0000 0.0000 0.0000
vn -1.0000 0.0000 0.0000
vn 0.0000 -0.0000 1.0000
vn 0.0000 0.0000 -1.0000
vn 0.0000 -1.0000 0.0000
vn 0.0000 1.0000 0.0000
usemtl mat10
s 1
f 123/365/91 124/366/91 125/367/91 126/368/91
f 127/369/92 128/370/92 129/371/92 130/372/92
f 125/373/93 127/374/93 130/375/93 126/376/93
f 129/377/94 128/378/94 124/379/94 123/380/94
f 130/381/95 129/382/95 123/383/95 126/384/95
f 124/385/96 128/386/96 127/387/96 125/388/96
o group923022377
v -0.019834 0.443335 -0.071613
v -0.019834 0.443335 -0.051613
v -0.019834 0.373335 -0.051613
v -0.019834 0.373335 -0.071613
v -0.039834 0.373335 -0.051613
v -0.039834 0.443335 -0.051613
v -0.039834 0.443335 -0.071613
v -0.039834 0.373335 -0.071613
vt 0.098694 0.177743
vt 0.100322 0.176580
vt 0.096253 0.170884
vt 0.094626 0.172046
vt -0.096253 0.170884
vt -0.100322 0.176580
vt -0.098694 0.177743
vt -0.094626 0.172046
vt 0.022602 0.125723
vt 0.021929 0.123839
vt 0.020046 0.124512
vt 0.020718 0.126395
vt -0.020046 0.124512
vt -0.021929 0.123839
vt -0.022602 0.125723
vt -0.020718 0.126395
vt -0.118959 0.198116
vt -0.125220 0.201246
vt -0.124325 0.203035
vt -0.118064 0.199905
vt 0.124325 0.203035
vt 0.125220 0.201246
vt 0.118959 0.198116
vt 0.118064 0.199905
vn 1.0000 -0.0000 0.0000
vn -1.0000 -0.0000 0.0000
vn 0.0000 -1.0000 0.0000
vn 0.0000 1.0000 0.0000
vn 0.0000 0.0000 -1.0000
vn 0.0000 -0.0000 1.0000
usemtl mat10
s 1
f 131/389/97 132/390/97 133/391/97 134/392/97
f 135/393/98 136/394/98 137/395/98 138/396/98
f 133/397/99 135/398/99 138/399/99 134/400/99
f 137/401/100 136/402/100 132/403/100 131/404/100
f 138/405/101 137/406/101 131/407/101 134/408/101
f 132/409/102 136/410/102 135/411/102 133/412/102
